<svg xmlns="http://www.w3.org/2000/svg" xmlns:xlink="http://www.w3.org/1999/xlink" width="40" zoomAndPan="magnify" viewBox="0 0 30 30.000001" height="40" preserveAspectRatio="xMidYMid meet" version="1.0"><defs><clipPath id="78386f36ec"><path d="M 1.59375 3 L 22 3 L 22 26 L 1.59375 26 Z M 1.59375 3 " clip-rule="nonzero"/></clipPath><clipPath id="d84d1d9860"><path d="M 14 5 L 28.398438 5 L 28.398438 20 L 14 20 Z M 14 5 " clip-rule="nonzero"/></clipPath></defs><path fill="#000000" d="M 15.621094 10.433594 C 15.285156 10.429688 14.957031 10.351562 14.660156 10.195312 C 14.359375 10.042969 14.105469 9.820312 13.914062 9.546875 C 13.71875 9.273438 13.59375 8.960938 13.550781 8.628906 C 13.503906 8.300781 13.539062 7.960938 13.652344 7.648438 C 13.765625 7.335938 13.949219 7.050781 14.195312 6.824219 C 14.441406 6.597656 14.734375 6.429688 15.058594 6.339844 C 15.382812 6.25 15.722656 6.238281 16.050781 6.304688 C 16.378906 6.371094 16.683594 6.519531 16.945312 6.726562 C 17.265625 6.988281 17.503906 7.335938 17.625 7.730469 C 17.75 8.125 17.75 8.546875 17.632812 8.941406 C 17.515625 9.335938 17.28125 9.6875 16.960938 9.953125 C 16.644531 10.214844 16.253906 10.378906 15.839844 10.421875 C 15.769531 10.429688 15.695312 10.433594 15.621094 10.433594 Z M 15.625 6.804688 C 15.261719 6.804688 14.90625 6.933594 14.625 7.167969 C 14.347656 7.402344 14.160156 7.726562 14.097656 8.085938 C 14.035156 8.445312 14.101562 8.8125 14.289062 9.128906 C 14.472656 9.441406 14.765625 9.679688 15.109375 9.800781 C 15.453125 9.921875 15.832031 9.921875 16.171875 9.792969 C 16.515625 9.664062 16.800781 9.417969 16.980469 9.101562 C 17.15625 8.785156 17.21875 8.414062 17.148438 8.054688 C 17.082031 7.699219 16.886719 7.375 16.601562 7.148438 C 16.328125 6.925781 15.980469 6.800781 15.625 6.804688 Z M 15.625 6.804688 " fill-opacity="1" fill-rule="nonzero"/><path fill="#000000" d="M 9.578125 10.222656 C 9.105469 10.222656 8.644531 10.0625 8.273438 9.765625 C 7.902344 9.46875 7.644531 9.058594 7.539062 8.597656 C 7.433594 8.136719 7.492188 7.652344 7.699219 7.226562 C 7.90625 6.800781 8.253906 6.460938 8.683594 6.257812 C 9.113281 6.054688 9.597656 6.003906 10.058594 6.109375 C 10.523438 6.21875 10.933594 6.480469 11.226562 6.851562 C 11.523438 7.222656 11.679688 7.683594 11.675781 8.15625 C 11.671875 8.628906 11.507812 9.085938 11.207031 9.453125 C 11.011719 9.695312 10.761719 9.890625 10.480469 10.023438 C 10.199219 10.15625 9.890625 10.222656 9.578125 10.222656 Z M 9.582031 6.59375 C 9.21875 6.59375 8.863281 6.722656 8.582031 6.957031 C 8.304688 7.191406 8.117188 7.519531 8.054688 7.878906 C 7.992188 8.234375 8.058594 8.605469 8.242188 8.917969 C 8.429688 9.234375 8.71875 9.472656 9.0625 9.59375 C 9.410156 9.714844 9.785156 9.710938 10.128906 9.585938 C 10.46875 9.457031 10.757812 9.210938 10.933594 8.894531 C 11.113281 8.578125 11.175781 8.207031 11.105469 7.847656 C 11.035156 7.492188 10.84375 7.167969 10.558594 6.941406 C 10.28125 6.71875 9.9375 6.59375 9.582031 6.59375 Z M 9.582031 6.59375 " fill-opacity="1" fill-rule="nonzero"/><path fill="#000000" d="M 5.691406 14.875 C 5.355469 14.875 5.023438 14.792969 4.726562 14.640625 C 4.429688 14.488281 4.171875 14.265625 3.980469 13.992188 C 3.789062 13.71875 3.664062 13.402344 3.617188 13.074219 C 3.570312 12.742188 3.605469 12.40625 3.71875 12.09375 C 3.832031 11.777344 4.015625 11.496094 4.261719 11.265625 C 4.507812 11.039062 4.804688 10.875 5.125 10.785156 C 5.449219 10.691406 5.789062 10.679688 6.117188 10.75 C 6.445312 10.816406 6.75 10.960938 7.011719 11.171875 C 7.347656 11.441406 7.589844 11.8125 7.707031 12.226562 C 7.824219 12.640625 7.8125 13.082031 7.664062 13.488281 C 7.519531 13.894531 7.253906 14.246094 6.898438 14.492188 C 6.546875 14.742188 6.121094 14.875 5.691406 14.875 Z M 5.695312 11.246094 C 5.640625 11.246094 5.585938 11.25 5.53125 11.253906 C 5.175781 11.292969 4.839844 11.449219 4.589844 11.703125 C 4.335938 11.957031 4.179688 12.292969 4.148438 12.648438 C 4.113281 13.003906 4.203125 13.359375 4.40625 13.65625 C 4.605469 13.953125 4.90625 14.167969 5.25 14.269531 C 5.59375 14.375 5.960938 14.351562 6.292969 14.214844 C 6.625 14.074219 6.898438 13.828125 7.066406 13.511719 C 7.230469 13.195312 7.285156 12.832031 7.210938 12.480469 C 7.140625 12.132812 6.949219 11.816406 6.667969 11.589844 C 6.394531 11.367188 6.050781 11.246094 5.695312 11.246094 Z M 5.695312 11.246094 " fill-opacity="1" fill-rule="nonzero"/><path fill="#000000" d="M 7.195312 20.765625 C 6.863281 20.765625 6.53125 20.683594 6.234375 20.53125 C 5.9375 20.378906 5.679688 20.15625 5.488281 19.882812 C 5.292969 19.609375 5.167969 19.296875 5.125 18.964844 C 5.078125 18.632812 5.113281 18.296875 5.226562 17.984375 C 5.335938 17.667969 5.523438 17.386719 5.769531 17.160156 C 6.015625 16.929688 6.308594 16.765625 6.632812 16.675781 C 6.957031 16.585938 7.296875 16.574219 7.625 16.640625 C 7.953125 16.707031 8.257812 16.851562 8.519531 17.0625 C 8.855469 17.335938 9.097656 17.703125 9.214844 18.117188 C 9.332031 18.53125 9.316406 18.972656 9.171875 19.378906 C 9.027344 19.785156 8.761719 20.136719 8.40625 20.386719 C 8.050781 20.632812 7.628906 20.765625 7.195312 20.765625 Z M 7.199219 17.136719 C 6.835938 17.136719 6.480469 17.265625 6.199219 17.5 C 5.921875 17.734375 5.734375 18.0625 5.671875 18.417969 C 5.609375 18.777344 5.675781 19.148438 5.863281 19.460938 C 6.046875 19.777344 6.335938 20.015625 6.683594 20.136719 C 7.027344 20.257812 7.402344 20.253906 7.746094 20.125 C 8.089844 20 8.375 19.753906 8.550781 19.4375 C 8.730469 19.117188 8.792969 18.75 8.722656 18.390625 C 8.65625 18.035156 8.460938 17.710938 8.175781 17.484375 C 7.902344 17.257812 7.554688 17.136719 7.199219 17.136719 Z M 7.199219 17.136719 " fill-opacity="1" fill-rule="nonzero"/><g clip-path="url(#78386f36ec)"><path fill="#000000" d="M 12.949219 25.90625 C 8.09375 25.90625 4.808594 22.464844 4.765625 22.417969 C 3.699219 21.363281 2.867188 20.097656 2.328125 18.699219 C 1.785156 17.300781 1.550781 15.808594 1.632812 14.3125 C 1.71875 12.546875 2.191406 10.820312 3.019531 9.257812 C 3.847656 7.695312 5.015625 6.332031 6.429688 5.269531 L 6.457031 5.246094 C 7.554688 4.429688 8.804688 3.835938 10.136719 3.507812 C 14.230469 2.507812 16.902344 3.652344 18.429688 4.789062 C 19.417969 5.511719 20.226562 6.453125 20.785156 7.542969 C 21.246094 8.523438 21.429688 9.609375 21.320312 10.6875 L 20.78125 10.628906 C 20.882812 9.648438 20.710938 8.65625 20.292969 7.765625 C 20.1875 7.535156 17.667969 2.222656 10.265625 4.03125 C 9.007812 4.34375 7.828125 4.902344 6.789062 5.675781 L 6.765625 5.695312 C 5.410156 6.710938 4.296875 8.011719 3.503906 9.507812 C 2.710938 11 2.257812 12.648438 2.175781 14.335938 C 2.097656 15.757812 2.324219 17.179688 2.835938 18.511719 C 3.351562 19.839844 4.144531 21.046875 5.160156 22.046875 C 5.214844 22.105469 10.335938 27.453125 17.152344 24.445312 C 17.199219 24.425781 21.5 22.53125 21.421875 20.125 C 21.417969 19.8125 21.300781 19.511719 21.09375 19.28125 C 20.933594 19.128906 20.742188 19.015625 20.535156 18.941406 C 20.328125 18.871094 20.105469 18.84375 19.886719 18.863281 C 19.488281 18.882812 19.09375 18.800781 18.734375 18.628906 C 18.65625 18.585938 18.578125 18.539062 18.5 18.492188 L 18.796875 18.039062 C 18.863281 18.082031 18.929688 18.117188 18.992188 18.152344 C 19.265625 18.28125 19.566406 18.34375 19.871094 18.324219 C 20.167969 18.300781 20.464844 18.339844 20.742188 18.441406 C 21.019531 18.542969 21.273438 18.703125 21.488281 18.910156 C 21.785156 19.238281 21.957031 19.664062 21.964844 20.105469 C 22.054688 22.878906 17.5625 24.855469 17.371094 24.9375 C 15.984375 25.566406 14.476562 25.898438 12.949219 25.90625 Z M 12.949219 25.90625 " fill-opacity="1" fill-rule="nonzero"/></g><g clip-path="url(#d84d1d9860)"><path fill="#000000" d="M 18.078125 19.398438 L 14.484375 15.949219 L 26.546875 5.570312 C 26.75 5.394531 27.011719 5.304688 27.277344 5.3125 C 27.546875 5.320312 27.800781 5.425781 27.992188 5.609375 C 28.1875 5.796875 28.300781 6.046875 28.320312 6.3125 C 28.335938 6.578125 28.25 6.839844 28.082031 7.050781 Z M 15.289062 15.972656 L 18.027344 18.601562 L 27.660156 6.710938 C 27.742188 6.605469 27.785156 6.476562 27.777344 6.347656 C 27.769531 6.214844 27.710938 6.089844 27.617188 6 C 27.519531 5.90625 27.394531 5.855469 27.261719 5.851562 C 27.128906 5.847656 27 5.894531 26.902344 5.980469 Z M 15.289062 15.972656 " fill-opacity="1" fill-rule="nonzero"/></g><path fill="#000000" d="M 13.660156 23.132812 C 12.425781 23.097656 11.214844 22.808594 10.101562 22.277344 L 9.460938 21.957031 L 10.152344 21.773438 C 11.023438 21.546875 11.480469 20.808594 11.511719 19.578125 C 11.53125 18.667969 11.863281 17.789062 12.449219 17.085938 C 13.035156 16.382812 13.84375 15.898438 14.742188 15.714844 C 14.804688 15.703125 14.839844 15.695312 14.839844 15.695312 L 14.972656 15.671875 L 18.351562 18.910156 L 18.316406 19.058594 C 17.898438 20.875 17.03125 22.101562 15.738281 22.707031 C 15.085938 23 14.375 23.144531 13.660156 23.132812 Z M 10.914062 22.035156 C 11.878906 22.402344 13.886719 22.976562 15.507812 22.214844 C 16.605469 21.699219 17.363281 20.648438 17.75 19.085938 L 14.800781 16.253906 C 14.03125 16.425781 13.34375 16.847656 12.847656 17.453125 C 12.351562 18.058594 12.070312 18.8125 12.054688 19.59375 C 12.023438 20.765625 11.632812 21.597656 10.914062 22.035156 Z M 10.914062 22.035156 " fill-opacity="1" fill-rule="nonzero"/></svg>