<svg xmlns="http://www.w3.org/2000/svg" xmlns:xlink="http://www.w3.org/1999/xlink" width="40" zoomAndPan="magnify" viewBox="0 0 30 30.000001" height="40" preserveAspectRatio="xMidYMid meet" version="1.0"><defs><clipPath id="186abf47a3"><path d="M 1.863281 1.378906 L 27.992188 1.378906 L 27.992188 27.507812 L 1.863281 27.507812 Z M 1.863281 1.378906 " clip-rule="nonzero"/></clipPath></defs><g clip-path="url(#186abf47a3)"><path fill="#ffffff" d="M 14.996094 1.378906 C 14.132812 1.378906 13.277344 1.464844 12.433594 1.632812 C 11.585938 1.800781 10.765625 2.046875 9.96875 2.378906 C 9.171875 2.707031 8.417969 3.113281 7.699219 3.59375 C 6.984375 4.070312 6.320312 4.617188 5.710938 5.226562 C 5.097656 5.835938 4.554688 6.5 4.074219 7.214844 C 3.597656 7.933594 3.191406 8.6875 2.863281 9.484375 C 2.53125 10.28125 2.285156 11.105469 2.117188 11.949219 C 1.945312 12.796875 1.863281 13.648438 1.863281 14.511719 C 1.863281 15.375 1.945312 16.226562 2.117188 17.074219 C 2.285156 17.917969 2.53125 18.742188 2.863281 19.539062 C 3.191406 20.332031 3.597656 21.089844 4.074219 21.808594 C 4.554688 22.523438 5.097656 23.1875 5.710938 23.796875 C 6.320312 24.40625 6.984375 24.953125 7.699219 25.429688 C 8.417969 25.910156 9.171875 26.316406 9.96875 26.644531 C 10.765625 26.972656 11.585938 27.222656 12.433594 27.390625 C 13.277344 27.558594 14.132812 27.644531 14.996094 27.644531 C 15.859375 27.644531 16.710938 27.558594 17.558594 27.390625 C 18.402344 27.222656 19.222656 26.972656 20.019531 26.644531 C 20.816406 26.316406 21.574219 25.910156 22.292969 25.429688 C 23.007812 24.953125 23.671875 24.40625 24.28125 23.796875 C 24.890625 23.1875 25.4375 22.523438 25.914062 21.808594 C 26.394531 21.089844 26.796875 20.332031 27.128906 19.539062 C 27.457031 18.742188 27.707031 17.917969 27.875 17.074219 C 28.042969 16.226562 28.128906 15.375 28.128906 14.511719 C 28.128906 13.648438 28.042969 12.796875 27.875 11.949219 C 27.707031 11.105469 27.457031 10.28125 27.128906 9.484375 C 26.796875 8.691406 26.394531 7.933594 25.914062 7.214844 C 25.433594 6.5 24.890625 5.835938 24.28125 5.226562 C 23.671875 4.617188 23.007812 4.070312 22.292969 3.59375 C 21.574219 3.113281 20.816406 2.710938 20.019531 2.378906 C 19.222656 2.050781 18.402344 1.800781 17.558594 1.632812 C 16.710938 1.464844 15.859375 1.378906 14.996094 1.378906 Z M 23.167969 12.421875 C 23.117188 12.574219 23.03125 12.699219 22.902344 12.792969 C 22.773438 12.886719 22.628906 12.933594 22.46875 12.929688 L 21.738281 12.929688 L 21.738281 20.316406 C 21.738281 20.609375 21.679688 20.894531 21.566406 21.171875 C 21.453125 21.445312 21.292969 21.6875 21.082031 21.894531 C 20.871094 22.105469 20.632812 22.265625 20.355469 22.378906 C 20.082031 22.492188 19.796875 22.550781 19.5 22.550781 L 17.296875 22.550781 C 17.179688 22.550781 17.078125 22.507812 16.992188 22.421875 C 16.910156 22.335938 16.867188 22.234375 16.867188 22.117188 L 16.867188 18.253906 C 16.867188 18.121094 16.839844 17.992188 16.789062 17.871094 C 16.738281 17.746094 16.667969 17.636719 16.570312 17.542969 C 16.476562 17.449219 16.367188 17.378906 16.246094 17.324219 C 16.121094 17.273438 15.996094 17.25 15.863281 17.25 L 14.128906 17.25 C 13.996094 17.25 13.867188 17.273438 13.746094 17.324219 C 13.621094 17.378906 13.511719 17.449219 13.417969 17.542969 C 13.324219 17.636719 13.253906 17.746094 13.199219 17.871094 C 13.148438 17.992188 13.125 18.121094 13.125 18.253906 L 13.125 22.117188 C 13.125 22.234375 13.082031 22.335938 13 22.421875 C 12.914062 22.507812 12.8125 22.550781 12.691406 22.550781 L 10.488281 22.550781 C 10.191406 22.550781 9.90625 22.492188 9.632812 22.378906 C 9.359375 22.265625 9.117188 22.105469 8.910156 21.894531 C 8.699219 21.6875 8.539062 21.445312 8.421875 21.171875 C 8.308594 20.894531 8.253906 20.609375 8.253906 20.316406 L 8.253906 12.929688 L 7.523438 12.929688 C 7.363281 12.933594 7.21875 12.886719 7.089844 12.792969 C 6.960938 12.699219 6.875 12.574219 6.824219 12.425781 C 6.777344 12.273438 6.777344 12.121094 6.828125 11.972656 C 6.875 11.820312 6.964844 11.699219 7.09375 11.605469 L 13.699219 6.890625 C 14.085938 6.613281 14.519531 6.476562 14.996094 6.476562 C 15.472656 6.476562 15.90625 6.613281 16.292969 6.890625 L 22.894531 11.605469 C 23.023438 11.699219 23.113281 11.820312 23.164062 11.96875 C 23.214844 12.121094 23.214844 12.273438 23.167969 12.421875 Z M 23.167969 12.421875 " fill-opacity="1" fill-rule="nonzero"/></g></svg>